<?xml version="1.0" encoding="utf-8"?>
<!-- Generator: Adobe Illustrator 22.0.0, SVG Export Plug-In . SVG Version: 6.00 Build 0)  -->
<svg version="1.1" baseProfile="basic" id="Layer_1"
	 xmlns="http://www.w3.org/2000/svg" xmlns:xlink="http://www.w3.org/1999/xlink" x="0px" y="0px" width="360px" height="96.3px"
	 viewBox="0 0 360 96.3" xml:space="preserve" preserveAspectRatio="none">
<defs>
	<filter id="Adobe_OpacityMaskFilter" filterUnits="userSpaceOnUse" x="-18.6" y="0" width="386.6" height="120.3">
		<feColorMatrix  type="matrix" values="1 0 0 0 0  0 1 0 0 0  0 0 1 0 0  0 0 0 1 0"/>
	</filter>
</defs>
<mask maskUnits="userSpaceOnUse" x="-18.6" y="0" width="386.6" height="120.3" id="mask0_1_">
	<path fill="#FFFFFF" filter="url(#Adobe_OpacityMaskFilter)" d="M10-283.7h340c5.5,0,10,4.5,10,10v360c0,5.5-4.5,10-10,10H10
		c-5.5,0-10-4.5-10-10v-360C0-279.2,4.5-283.7,10-283.7z"/>
</mask>
<g mask="url(#mask0_1_)">
	<path fill="rgba(23,162,184,0.33)" d="M95,4.7C54-0.1,7.6-3.5-18.6,19.3l12,101H368V25.9L299.6,8.7c-23.8,2.5-78.4,12.8-111.6,10.6
		C138.2,16,146.1,10.7,95,4.7z"/>
	
		<linearGradient id="SVGID_1_" gradientUnits="userSpaceOnUse" x1="179.0106" y1="-166.7605" x2="189.0466" y2="-313.6166" gradientTransform="matrix(1 0 0 -1 0 -185.4154)">
		<stop  offset="0" style="stop-color:#5AC4D3"/>
		<stop  offset="1" style="stop-color:#59ECB7;stop-opacity:0.72"/>
	</linearGradient>
	<path fill="#26a0b3" d="M99.6,15.9C34.5-3.3,14.4-0.2,0,4.7V103h368V5.7C354.1-6,306.2,1.3,249.8,18
		C172,37.9,130.2,27.3,99.6,15.9z"/>
</g>
</svg>
